<?xml version="1.0" standalone="no"?><!DOCTYPE svg PUBLIC "-//W3C//DTD SVG 1.1//EN" "http://www.w3.org/Graphics/SVG/1.1/DTD/svg11.dtd"><svg t="1553565368492" class="icon" style="" viewBox="0 0 1024 1024" version="1.1" xmlns="http://www.w3.org/2000/svg" p-id="3811" xmlns:xlink="http://www.w3.org/1999/xlink" width="200" height="200"><defs><style type="text/css"></style></defs><path d="M512 0c-282.624 0-512 229.376-512 512s229.376 512 512 512S1024 794.624 1024 512s-229.376-512-512-512z m-3.584 829.44c-27.648 0-50.688-23.04-50.688-50.688l-0.512-207.36-207.36 0.512c-28.16 0-51.2-22.528-51.2-50.176v-16.384c0-27.648 23.04-50.688 50.688-50.688l207.36-0.512-0.512-207.36c0-28.16 22.528-51.2 50.176-51.2h16.384c27.648 0 50.688 23.04 50.688 50.688l0.512 207.36 207.36-0.512c28.16 0 51.2 22.528 51.2 50.176v16.384c0 27.648-23.04 50.688-50.688 50.688l-207.36 0.512 0.512 207.36c0 28.16-22.528 51.2-50.176 51.2h-16.384z" fill="#ffffff" p-id="3812"></path></svg>