<?xml version="1.0" standalone="no"?><!DOCTYPE svg PUBLIC "-//W3C//DTD SVG 1.1//EN" "http://www.w3.org/Graphics/SVG/1.1/DTD/svg11.dtd"><svg t="1552533084506" class="icon" style="" viewBox="0 0 1024 1024" version="1.1" xmlns="http://www.w3.org/2000/svg" p-id="6708" xmlns:xlink="http://www.w3.org/1999/xlink" width="200" height="200"><defs><style type="text/css"></style></defs><path d="M792.178 746.667h85.333v274.489h-85.333zM604.444 445.156H231.822c-21.333 0-36.978 22.755-36.978 44.088 0 19.912 15.645 42.667 36.978 44.09h376.89c19.91-2.845 34.132-25.6 34.132-44.09-1.422-21.333-17.066-44.088-38.4-44.088zM238.934 634.31c-21.334 0-36.978 22.756-36.978 44.089 0 19.911 15.644 42.667 36.977 44.089h155.023c21.333 0 36.977-22.756 36.977-44.089 0-19.911-15.644-42.667-36.977-44.089H238.933z m-7.112-281.6h376.89c19.91-2.844 34.132-25.6 34.132-44.089 0-19.91-15.644-42.666-36.977-44.089H231.822c-21.333 0-36.978 22.756-36.978 44.09 0 19.91 15.645 42.666 36.978 44.088z" p-id="6709" fill="#ffffff"></path><path d="M789.333 14.222H105.244C51.2 17.067 8.534 61.156 8.534 115.2v807.822C8.533 978.49 52.621 1024 106.666 1024h452.266v-82.489H118.044c-14.222 0-25.6-12.8-25.6-27.022V125.156c0-14.223 11.378-27.023 25.6-27.023h658.49c14.222 0 25.6 12.8 25.6 27.023v193.422c0 12.8 21.333 17.066 42.666 17.066 19.911 0 42.667-4.266 42.667-17.066V115.2c-1.423-55.467-44.09-100.978-98.134-100.978z" p-id="6710" fill="#ffffff"></path><path d="M834.844 482.133L645.69 749.511h376.889z" p-id="6711" fill="#ffffff"></path></svg>