<?xml version="1.0" standalone="no"?><!DOCTYPE svg PUBLIC "-//W3C//DTD SVG 1.1//EN" "http://www.w3.org/Graphics/SVG/1.1/DTD/svg11.dtd"><svg t="1552532765008" class="icon" style="" viewBox="0 0 1024 1024" version="1.1" xmlns="http://www.w3.org/2000/svg" p-id="4232" xmlns:xlink="http://www.w3.org/1999/xlink" width="200" height="200"><defs><style type="text/css"></style></defs><path d="M353.6 263.2C390.4 84.8 565.6-30.4 744 7.2s292.8 211.2 256 390.4-211.2 292.8-390.4 256c-178.4-37.6-292.8-212-256-390.4z m371.2-174.4c-132-27.2-261.6 57.6-288.8 190.4C408 411.2 493.6 540.8 625.6 568c132 27.2 261.6-57.6 289.6-190.4 27.2-132-57.6-261.6-190.4-288.8z" p-id="4233" fill="#ffffff"></path><path d="M91.2 903.2h873.6c24.8 0 44.8 20 44.8 44.8 0 24.8-20 44.8-44.8 44.8H91.2c-24.8 0-44.8-20-44.8-44.8-0.8-24 19.2-44.8 44.8-44.8z m0-391.2H272c24.8 0 44.8 20 44.8 44.8 0 24.8-20 44.8-44.8 44.8H91.2c-24.8 0-44.8-20-44.8-44.8-0.8-24.8 19.2-44.8 44.8-44.8z m0-391.2H272c24.8 0 44.8 20 44.8 44.8 0 24.8-20 44.8-44.8 44.8H91.2c-24.8 0-44.8-20-44.8-44.8s19.2-44.8 44.8-44.8z m808 448.8l90.4 156.8c12.8 21.6 4.8 49.6-16.8 61.6-21.6 12.8-49.6 4.8-61.6-16.8l-90.4-156.8c-12.8-21.6-4.8-49.6 16.8-61.6 21.6-12.8 49.6-4.8 61.6 16.8z" p-id="4234" fill="#ffffff"></path></svg>