<?xml version="1.0" standalone="no"?><!DOCTYPE svg PUBLIC "-//W3C//DTD SVG 1.1//EN" "http://www.w3.org/Graphics/SVG/1.1/DTD/svg11.dtd"><svg t="1552532929122" class="icon" style="" viewBox="0 0 1024 1024" version="1.1" xmlns="http://www.w3.org/2000/svg" p-id="5146" xmlns:xlink="http://www.w3.org/1999/xlink" width="200" height="200"><defs><style type="text/css"></style></defs><path d="M253.952 69.632C331.776 24.576 417.792 0 512 0s180.224 24.576 258.048 69.632c77.824 45.056 139.264 106.496 180.224 180.224 45.056 77.824 69.632 167.936 69.632 258.048s-24.576 180.224-69.632 258.048c-45.056 77.824-106.496 139.264-180.224 180.224-77.824 45.056-167.936 69.632-258.048 69.632s-180.224-24.576-258.048-69.632c-77.824-45.056-139.264-106.496-180.224-184.32-45.056-77.824-69.632-163.84-69.632-258.048S28.672 323.584 73.728 245.76c40.96-69.632 102.4-131.072 180.224-176.128z m49.152 794.624c65.536 36.864 131.072 57.344 204.8 57.344s143.36-20.48 204.8-57.344c61.44-36.864 110.592-86.016 147.456-147.456 36.864-65.536 57.344-131.072 57.344-204.8S901.12 368.64 864.256 303.104c-36.864-61.44-86.016-110.592-147.456-147.456-65.536-36.864-131.072-57.344-204.8-57.344S368.64 118.784 303.104 155.648c-61.44 36.864-110.592 86.016-147.456 147.456-36.864 65.536-57.344 131.072-57.344 204.8s20.48 143.36 57.344 204.8c36.864 65.536 86.016 114.688 147.456 151.552z m233.472-610.304v270.336l229.376 135.168-36.864 65.536-270.336-163.84V253.952h77.824z" fill="#ffffff" p-id="5147"></path></svg>