<?xml version="1.0" standalone="no"?><!DOCTYPE svg PUBLIC "-//W3C//DTD SVG 1.1//EN" "http://www.w3.org/Graphics/SVG/1.1/DTD/svg11.dtd"><svg t="1528859929694" class="icon" style="" viewBox="0 0 1024 1024" version="1.1" xmlns="http://www.w3.org/2000/svg" p-id="3907" xmlns:xlink="http://www.w3.org/1999/xlink" width="200" height="200"><defs><style type="text/css"></style></defs><path d="M881.547 492.504v323.778c0 42.056-34.138 76.214-76.147 76.214H196.467c-42.013 0-76.146-34.158-76.146-76.214V206.511c0-42.057 34.133-76.169 76.146-76.169H522.89c20.657 0 37.786-17.147 37.786-37.828-0.073-20.82-16.987-37.735-37.853-37.829H196.467C112.327 54.779 44.174 123 44.198 207.116v609.769c-0.024 84.117 68.128 152.385 152.269 152.431H805.4c84.14-0.046 152.293-68.313 152.269-152.431V492.504c-0.07-20.82-16.916-37.735-37.782-37.828-20.61-0.558-37.761 15.662-38.339 36.295-0.024 0.511-0.024 0.977 0 1.487v0.046z" p-id="3908"></path><path d="M978.069 71.276c-5.297-10.504-16.964-16.545-31.95-16.545H720.47c-22.469 0-47.75 14.407-58.74 33.229L506.532 355.18c-7.039 12.129-7.457 24.955-1.205 35.086 6.25 10.178 17.937 15.94 32.229 15.94h37.734l-0.23 0.605c-0.187 0.556-0.421 1.161-0.607 1.763l-62.459 220.795c-2.066 5.204-6.458 17.938 1.048 28.301 4.229 5.765 10.873 9.063 18.402 9.063 7.296 0 14.523-3.067 22.701-9.621a6.75 6.75 0 0 0 0.698-0.603L899.045 350.53c16.936-13.802 14.244-27.186 12.336-32.346-1.998-5.112-8.946-17.147-31.508-17.147h-68.479l160.308-195.326c9.435-11.246 11.711-23.84 6.367-34.435M773.66 286.583c-8.506 10.456-10.573 21.842-5.671 31.462 4.833 9.621 15.431 15.058 29.045 15.058h51.795L578.124 573.694l47.17-166.883c4.114-11.016 2.952-22.262-3.275-30.953-6.414-8.876-17.174-13.896-29.626-13.896h-30.068L701.673 122.07c3.809-6.551 15.196-13.012 22.911-13.012H919.49L773.66 286.583z" p-id="3909"></path></svg>