<?xml version="1.0" standalone="no"?><!DOCTYPE svg PUBLIC "-//W3C//DTD SVG 1.1//EN" "http://www.w3.org/Graphics/SVG/1.1/DTD/svg11.dtd"><svg t="1528859241016" class="icon" style="" viewBox="0 0 1024 1024" version="1.1" xmlns="http://www.w3.org/2000/svg" p-id="2927" xmlns:xlink="http://www.w3.org/1999/xlink" width="200" height="200"><defs><style type="text/css"></style></defs><path d="M515.218298 64.023152C267.807419 65.066925 68.087725 266.48019 69.13252 513.89107c1.044796 247.410879 202.457038 447.130573 449.868941 446.086801s447.130573-202.457038 446.085778-449.867918S762.630201 62.978357 515.218298 64.023152L515.218298 64.023152zM518.686283 885.548718c-206.326159 0.870834-374.254799-165.645644-375.125633-371.971803s165.645644-374.254799 371.971803-375.125633c206.326159-0.870834 374.254799 165.645644 375.125633 371.971803S725.012442 884.677884 518.686283 885.548718L518.686283 885.548718z" p-id="2928"></path><path d="M515.979638 244.173139c-103.802134 0.437975-187.602725 84.948741-187.16475 188.751898 0.069585 16.512069 1.532913 29.689183 5.629207 44.903699l0.063445 0c5.131881 17.897625 21.633716 31.011294 41.216727 30.928407 23.551392-0.099261 42.605354-19.315928 42.506093-42.865273-0.016373-3.968381-0.608867-7.742335-1.584078-11.32186l0.127913-0.001023c-1.630127-7.096628-2.557242-14.452153-2.588965-22.004153-0.23843-56.57246 45.517683-102.716406 102.154611-102.95586 56.636928-0.239454 102.716406 45.452191 102.954837 102.08912 0.239454 56.636928-45.452191 102.71743-102.08912 102.95586-23.614837 0.099261-42.668799 19.379373-42.569538 42.929742l0.479931 113.723088 85.435835-0.360204-0.321318-76.028581c83.179444-19.678178 144.876622-94.496188 144.500045-183.580109C704.292538 327.535755 619.781772 243.735164 515.979638 244.173139L515.979638 244.173139z" p-id="2929"></path><path d="M475.230562 718.506261 560.666396 718.146057 560.994877 796.028868 475.559043 796.390096Z" p-id="2930"></path></svg>