<?xml version="1.0" standalone="no"?><!DOCTYPE svg PUBLIC "-//W3C//DTD SVG 1.1//EN" "http://www.w3.org/Graphics/SVG/1.1/DTD/svg11.dtd"><svg t="1528708114438" class="icon" style="" viewBox="0 0 1024 1024" version="1.1" xmlns="http://www.w3.org/2000/svg" p-id="1998" xmlns:xlink="http://www.w3.org/1999/xlink" width="200" height="200"><defs><style type="text/css"></style></defs><path d="M824.888889 426.666667v-85.333334c0-173.511111-139.377778-312.888889-312.888889-312.888889S199.111111 167.822222 199.111111 341.333333v85.333334H85.333333v455.111111h853.333334V426.666667h-113.777778z m-284.444445 219.022222V739.555556h-56.888888v-93.866667c-17.066667-8.533333-28.444444-28.444444-28.444445-48.355556 0-31.288889 25.6-56.888889 56.888889-56.888889s56.888889 25.6 56.888889 56.888889c0 19.911111-11.377778 39.822222-28.444445 48.355556zM512 426.666667h-199.111111v-85.333334c0-110.933333 88.177778-199.111111 199.111111-199.111111s199.111111 88.177778 199.111111 199.111111v85.333334h-199.111111z" fill="" p-id="1999"></path></svg>