<?xml version="1.0" standalone="no"?><!DOCTYPE svg PUBLIC "-//W3C//DTD SVG 1.1//EN" "http://www.w3.org/Graphics/SVG/1.1/DTD/svg11.dtd"><svg t="1553565084404" class="icon" style="" viewBox="0 0 1025 1024" version="1.1" xmlns="http://www.w3.org/2000/svg" p-id="2008" xmlns:xlink="http://www.w3.org/1999/xlink" width="200.1953125" height="200"><defs><style type="text/css"></style></defs><path d="M992.006016 516.259857l-256.001024 0c-17.672263 0-32.000128-14.319673-32.000128-31.99808 0-17.674311 14.325817-32.000128 32.000128-32.000128l256.001024 0c17.672263 0 32.000128 14.325817 32.000128 32.000128C1024.006144 501.942232 1009.678279 516.259857 992.006016 516.259857zM992.006016 255.996928l-256.001024 0c-17.672263 0-32.000128-14.327865-32.000128-31.99808 0-17.676359 14.325817-32.006272 32.000128-32.006272l256.001024 0c17.672263 0 32.000128 14.329913 32.000128 32.006272C1024.006144 241.669063 1009.678279 255.996928 992.006016 255.996928zM704.004864 704.000768l0 127.99232c0 106.043816-85.963096 192.006912-192.002816 192.006912L192.000768 1024C85.963096 1024 0 938.038952 0 831.993088l0-127.99232c0-84.060496 54.364377-154.722923 129.579526-180.732627-40.96426-55.279837-65.577222-126.077432-65.577222-203.270957C64.002304 143.264317 192.942852 0 352.001408 0c159.058556 0 288.0032 143.264317 288.0032 319.997184 0 77.195573-24.610914 147.99112-65.577222 203.270957C649.642535 549.277845 704.004864 619.940272 704.004864 704.000768zM576.004352 319.997184c0-141.384246-100.288913-256.001024-224.002944-256.001024-123.711983 0-223.998848 114.616778-223.998848 256.001024 0 141.388342 100.286865 256.003072 223.998848 256.003072C475.715439 576.000256 576.004352 461.385526 576.004352 319.997184zM640.004608 719.999808c0-68.034832-51.630287-124.705267-120.824291-139.766319-47.165629 37.480598-104.772003 59.764975-167.178909 59.764975s-120.011232-22.284377-167.178909-59.764975c-69.191957 15.061052-120.822243 71.731487-120.822243 139.766319l0 95.998336c0 79.528254 70.330649 144.0016 157.09042 144.0016l261.819415 0c86.757723 0 157.092468-64.471298 157.092468-144.0016L640.00256 719.999808zM800.0032 716.800819l192.000768 0c17.672263 0 32.000128 14.323769 32.000128 31.99808 0 17.672263-14.327865 32.000128-32.000128 32.000128l-192.000768 0c-17.672263 0-32.000128-14.327865-32.000128-32.000128C768.00512 731.124588 782.330937 716.800819 800.0032 716.800819z" p-id="2009" fill="#ffffff"></path></svg>