<?xml version="1.0" standalone="no"?><!DOCTYPE svg PUBLIC "-//W3C//DTD SVG 1.1//EN" "http://www.w3.org/Graphics/SVG/1.1/DTD/svg11.dtd"><svg t="1552532526785" class="icon" style="" viewBox="0 0 1024 1024" version="1.1" xmlns="http://www.w3.org/2000/svg" p-id="2600" xmlns:xlink="http://www.w3.org/1999/xlink" width="200" height="200"><defs><style type="text/css"></style></defs><path d="M734.8060408203125 589.2026310546876c-102.03740419921874 0-185.09045185546876 83.13742177734375-185.09045185546876 185.3154509765625 0 102.17802919921876 83.02492177734375 185.3154509765625 185.09045185546876 185.3154509765625s185.06232685546874-83.13742177734375 185.06232685546874-185.3154509765625C919.8683676757812 672.3400528320312 836.8434458984375 589.2026310546876 734.8060408203125 589.2026310546876M733.4560425781249 920.655444921875c-80.46554941406251 0-145.912362890625-65.55931347656251-145.912362890625-146.13736289062498 0-80.57804941406249 65.4749384765625-146.13736289062498 145.912362890625-146.13736289062498 80.4374244140625 0 145.912362890625 65.55931347656251 145.912362890625 146.13736289062498C879.36840546875 855.0961314453125 813.8934669921875 920.655444921875 733.4560425781249 920.655444921875" p-id="2601" fill="#ffffff"></path><path d="M803.3184766601562 826.6336578125001l-93.54366210937499 0 0-135.67487255859373c0-10.828114453125 8.77499208984375-19.60310654296875 19.574981542968754-19.60310654296875s19.574981542968754 8.77499208984375 19.574981542968754 19.60310654296875l0 96.49678447265626 54.365574023437496 0c10.799989453124999 0 19.574981542968754 8.77499208984375 19.574981542968754 19.60310654296875C822.921583203125 817.8586666015625 814.1465919921875 826.6336578125001 803.3184766601562 826.6336578125001" p-id="2602" fill="#ffffff"></path><path d="M343.84078232421876 536.2433052734375l137.39049580078125 0L675.1248470703125 536.2433052734375l20.587480664062504 0c14.737485937499995 0 27.02809951171875-12.40311357421875 27.02809951171875-27.25309951171875s-12.29061357421875-27.22497451171875-27.02809951171875-27.22497451171875l-137.39049580078125 0-193.89356806640623 0-20.6156056640625 0c-14.709360937499998 0-26.99997451171875 12.374988574218747-26.99997451171875 27.22497451171875S329.1314213867187 536.2433052734375 343.84078232421876 536.2433052734375" p-id="2603" fill="#ffffff"></path><path d="M343.84078232421876 749.0931057617188l140.7373681640625 0c14.737485937499995 0 27.02809951171875-12.40311357421875 27.02809951171875-27.25309951171875 0-14.849985937499998-12.31873857421875-27.25309951171875-27.02809951171875-27.25309951171875l-140.7373681640625 0c-14.709360937499998 0-26.99997451171875 12.374988574218747-26.99997451171875 27.25309951171875C316.8408078125 736.6899921875001 329.1314213867187 749.0931057617188 343.84078232421876 749.0931057617188" p-id="2604" fill="#ffffff"></path><path d="M481.2312790039062 323.3935047851562L675.1248470703125 323.3935047851562l20.587480664062504 0c14.737485937499995 0 27.02809951171875-12.374988574218747 27.02809951171875-27.22497451171875 0-14.849985937499998-12.29061357421875-27.25309951171875-27.02809951171875-27.25309951171875l-137.39049580078125 0-193.89356806640623 0-20.587480664062504 0c-14.737485937499995 0-27.02809951171875 12.374988574218747-27.02809951171875 27.25309951171875 0 14.849985937499998 12.29061357421875 27.22497451171875 27.02809951171875 27.22497451171875L481.2312790039062 323.3935047851562z" p-id="2605" fill="#ffffff"></path><path d="M915.3402470703124 125.73119023437499c-15.66561005859375-26.521850390625-40.16246220703125-45.3655828125-68.51243583984375-56.249947265624996C827.8715788085938 62.224999999999966 807.902847265625 62 788.0184916015625 62l-61.368692871093764 0-202.92168515625 0L318.6126810546875 62l-64.124940234375 0C236.96588251953125 62 220.03464833984378 61.91562499999998 202.76591503906252 66.30312060546879 146.23471777343752 80.61873242187511 105.70663056640626 134.98430644531248 105.70663056640626 193.34362695312507l0 26.662475390625 0 162.16859794921876 0 222.15916669921876 0 180.05608125 0 42.299960449218744c0 38.16558896484376 14.03436181640625 74.95305468750001 42.41246044921874 100.856155078125 23.03435302734375 21.0374806640625 52.143700781250004 32.62496923828125 83.10929677734374 34.284342480468744 6.0468697265625 0.30937499999999996 12.20623857421875 0.08437499999999999 18.253108300781243 0.08437499999999999l89.54991562500001 0 145.60298876953127 0c14.709360937499998 0 27.02809951171875-12.374988574218747 27.02809951171875-27.22497451171875 0-14.849985937499998-12.31873857421875-27.22497451171875-27.02809951171875-27.22497451171875l-161.99984794921878 0L242.42212812500003 907.4648322265625 236.26275839843748 907.4648322265625c-2.7281223632812504 0-5.456244726562501-0.11249999999999999-8.18436708984375-0.30937499999999996-0.61874912109375-0.028124999999999997-1.26562412109375-0.08437499999999999-1.9124982421874999-0.16874999999999998 2.0531232421874996 0.30937499999999996 3.937496484375 0.47812412109375-2.7281223632812504-0.28125 0.9281241210937499 0.08437499999999999 1.8281232421874998 0.196875 2.7281223632812504 0.28125-0.5906241210937501-0.056249999999999994-1.18124912109375-0.140625-1.6312482421875-0.22499999999999998-3.487496484375-0.5906241210937501-6.918743847656248-1.4906232421874999-10.32186533203125-2.44687236328125-2.7281223632812504-0.75937412109375-5.3718697265625-1.7156232421875-8.04374208984375-2.7281223632812504 0.16874999999999998 0.056249999999999994 0.30937499999999996 0.140625 0.47812412109375 0.196875 5.09062060546875 2.3062482421875-6.18749384765625-2.3906223632812504-0.9562491210937499-0.39375 0.16874999999999998 0.056249999999999994 0.33749999999999997 0.11249999999999999 0.47812412109375 0.16874999999999998-1.18124912109375-0.56249912109375-2.36249736328125-1.15312412109375-3.515621484374999-1.7437482421875-2.64374736328125-1.3499991210937499-5.2031197265625-2.8406223632812497-7.734367968749999-4.41562060546875-1.3218741210937501-0.81562412109375-5.765619726562498-4.106246484374999-6.66561884765625-4.6968706054687495 0.81562412109375 0.70312412109375 1.6874982421875 1.4343732421875002 2.531247363281249 2.1093732421875004-2.50312236328125-1.9968732421875002-3.00937236328125-2.44687236328125-2.531247363281249-2.1093732421875004-3.6281214843750003-3.09374736328125-7.03124384765625-6.49686884765625-10.237490332031252-10.040615332031248-0.87187412109375-0.98437412109375-1.6874982421875-1.9687482421875-2.50312236328125-2.9812473632812497 0.08437499999999999 0.140625 0.196875 0.28125 0.28125 0.42187499999999994 3.290621484375 4.47187060546875-4.134371484374999-5.09062060546875-0.61874912109375-0.81562412109375 0.11249999999999999 0.140625 0.22499999999999998 0.253125 0.365625 0.39375-1.9406232421874998-2.67187236328125-3.684371484374999-5.4281197265625-5.3718697265625-8.26874208984375-1.5187482421875-2.55937236328125-2.8687473632812495-5.2312447265625-4.134371484374999-7.903117968749999-0.140625-0.28125-0.30937499999999996-0.67499912109375-0.5062491210937501-1.09687412109375 0.253125 0.70312412109375 0.53437412109375 1.40624912109375 0.81562412109375 2.0812482421875-2.64374736328125-6.46874384765625-1.6874982421875-4.049996484375-0.81562412109375-2.0812482421875-0.28125-0.70312412109375-0.53437412109375-1.40624912109375-0.78749912109375-2.1374982421875-1.7999982421875003-5.0062456054687505-3.12187236328125-10.20936533203125-4.106246484374999-15.440610937499997 0 0.365625-0.140625-0.5062491210937501-0.64687412109375-3.7968714843749996 0.196875 1.26562412109375 0.44999999999999996 2.531247363281249 0.64687412109375 3.7968714843749996 0-0.70312412109375-0.64687412109375-5.8781197265625-0.75937412109375-7.45311796875-0.056249999999999994-1.6031232421875001-0.08437499999999999-3.20624736328125-0.08437499999999999-4.78124560546875l0-0.64687412109375 0-10.43436533203125L159.79095546874998 766.2493399414062l0-191.699820703125 0-220.02166845703127 0-146.249862890625L159.79095546874998 195.22800019531246 159.79095546874998 193.31550195312502c0-2.1374982421875 0.056249999999999994-4.246870605468748 0.196875-6.35624384765625C159.98782958984378 185.60925898437495 160.12845458984373 184.2873857421875 160.26907958984378 182.93738662109376c0 0.140625-0.056249999999999994 0.253125-0.08437499999999999 0.42187499999999994C159.28470546875002 189.06863046875003 160.88782958984376 176.46864277343747 160.32532958984376 182.2623875c0 0.22499999999999998-0.028124999999999997 0.47812412109375-0.056249999999999994 0.67499912109375C161.28157871093748 176.5530177734375 163.05345195312498 170.30927304687498 165.21907519531248 164.23427919921875c0.11249999999999999-0.22499999999999998 0.22499999999999998-0.56249912109375 0.365625-0.8999991210937501-0.28125 0.5906241210937501-0.56249912109375 1.2093741210937496-0.84374912109375 1.8281232421874998 2.8687473632812495-6.66561884765625 1.6312482421875-3.853121484375 0.84374912109375-1.8281232421874998 0.33749999999999997-0.7312491210937501 0.70312412109375-1.4906232421874999 1.06874912109375-2.2499982421875 1.29374912109375-2.6999973632812497 2.75624736328125-5.2874947265625 4.246870605468748-7.846867968750001 1.4343732421875002-2.4187473632812497 2.9812473632812497-4.72499560546875 4.61249560546875-7.03124384765625C175.40031552734376 146.3749208984375 175.2878155273437 146.51554589843744 175.1471905273437 146.6561708984375 171.71594404296877 150.98741650390622 179.00031201171885 141.31242529296873 175.79406552734372 145.84054677734377c-0.08437499999999999 0.140625-0.16874999999999998 0.28125-0.28125 0.39375 1.12499912109375-1.3781241210937498 2.3062482421875-2.7281223632812504 3.515621484374999-4.049996484375C180.99718525390625 139.99055205078122 183.0784334960938 137.93742880859372 185.2440567382812 135.91243056640621c0.8999991210937501-0.84374912109375 3.8812464843749996-3.26249736328125 5.0062456054687505-4.218746484375001C189.37842734375005 132.31243408203125 188.50655322265618 132.903058203125 187.66280410156253 133.54993320312497 190.86905146484372 131.1311849609375 191.0940505859375 130.96243496093751 190.25030146484374 131.6936849609375c4.38749560546875-3.12187236328125 8.9999912109375-5.8499947265625005 13.75311181640625-8.24061708984375 0.61874912109375-0.30937499999999996 1.23749912109375-0.5906241210937501 1.8562482421874997-0.8999991210937501C205.49403740234374 122.69369287109379 205.12841240234383 122.86244287109372 204.84716328124995 122.97494287109379c-1.4343732421875002 0.61874912109375-0.9562491210937499 0.42187499999999994 0 0 0.64687412109375-0.28125 1.6593732421875-0.7312491210937501 3.20624736328125-1.4624982421875001C207.32216064453127 121.87806875000001 206.56278652343758 122.21556874999999 205.85966240234376 122.55306787109373 206.30966152343746 122.35619375000005 206.75966152343756 122.15931875000001 207.12528564453123 122.01869375000001c2.81249736328125-1.09687412109375 5.6812447265624995-1.9687482421875 8.578117089843749-2.7843723632812503 2.9249973632812503-0.84374912109375 5.8781197265625-1.4624982421875001 8.88749208984375-2.0531232421874996 0.28125-0.028124999999999997 0.64687412109375-0.11249999999999999 1.06874912109375-0.16874999999999998C224.90026894531246 117.06869814453125 224.19714482421875 117.15307314453122 223.465895703125 117.23744814453124 230.75026367187508 116.30932402343751 227.8252663085937 116.67494902343748 225.63151806640627 117.01244814453128c1.3218741210937501-0.140625 2.67187236328125-0.253125 4.021871484375-0.33749999999999997C232.1565119140625 116.50619902343749 234.68776015625002 116.50619902343749 237.21900751953126 116.50619902343749l115.59364189453126 0 214.56542373046875 0 187.87482421875004 0 44.6343328125 0 3.374996484375 0c0.64687412109375 0 1.26562412109375 0 1.9406232421874998 0 2.9249973632812503 0 5.8218697265625 0.22499999999999998 8.718742089843749 0.5062491210937501-0.140625-0.028124999999999997-0.28125-0.056249999999999994-0.42187499999999994-0.08437499999999999-5.6812447265624995-0.8999991210937501 6.83436884765625 0.70312412109375 1.06874912109375 0.140625-0.196875 0-0.42187499999999994-0.028124999999999997-0.64687412109375-0.028124999999999997 1.8562482421874997 0.30937499999999996 3.7124964843749995 0.67499912109375 5.5687447265625005 1.12499912109375 2.95312236328125 0.61874912109375 5.8499947265625005 1.4906232421874999 8.74686708984375 2.3906223632812504 1.18124912109375 0.39375 4.80937060546875 1.8281232421874998 6.215618847656248 2.36249736328125-0.9562491210937499-0.47812412109375-1.9124982421874999-0.9281241210937499-2.8968723632812496-1.3499991210937499 3.7124964843749995 1.6312482421875 3.965621484375 1.7718732421875 2.8968723632812496 1.3499991210937499 4.80937060546875 2.3343732421875 9.4499912109375 5.06249560546875 13.89373681640625 8.071867089843751 0.53437412109375 0.365625 1.04062412109375 0.7312491210937501 1.5468732421875 1.09687412109375-0.42187499999999994-0.33749999999999997-0.84374912109375-0.67499912109375-1.15312412109375-0.8999991210937501-0.56249912109375-0.42187499999999994-0.42187499999999994-0.30937499999999996 0 0 0.47812412109375 0.365625 1.4343732421875002 1.06874912109375 3.20624736328125 2.3906223632812504-0.67499912109375-0.5062491210937501-1.3499991210937499-1.01249912109375-2.0531232421874996-1.4906232421874999 0.44999999999999996 0.33749999999999997 0.87187412109375 0.67499912109375 1.18124912109375 0.9281241210937499 2.2781232421875 1.8843732421875001 4.38749560546875 3.937496484375 6.46874384765625 5.9906197265625 2.1093732421875004 2.0812482421875 4.049996484375 4.2749956054687495 5.9624947265624995 6.52499384765625 0.16874999999999998 0.16874999999999998 0.365625 0.44999999999999996 0.5906241210937501 0.70312412109375-0.39375-0.56249912109375-0.75937412109375-1.06874912109375-1.15312412109375-1.6031232421875001 4.331245605468751 5.7093697265625 2.4749973632812496 3.26249736328125 1.15312412109375 1.6031232421875001 0.75937412109375 1.06874912109375 1.5187482421875 2.1374982421875 2.2499982421875 3.2343723632812496 2.61562236328125 3.909371484375 4.89374560546875 8.04374208984375 6.918743847656248 12.29061357421875C873.1809116210937 161.5624068359375 873.5746607421875 162.37803095703129 874.8121598632812 165.1624033203126c-0.53437412109375-1.15312412109375-1.06874912109375-2.2781232421875-1.6031232421875001-3.403121484375 0.08437499999999999 0.42187499999999994 2.1093732421875004 5.2874947265625 2.58749736328125 6.74999384765625 1.12499912109375 3.403121484375 1.9687482421875 6.83436884765625 2.7281223632812504 10.32186533203125 0.30937499999999996 1.3781241210937498 0.56249912109375 2.75624736328125 0.78749912109375 4.106246484374999 0-0.22499999999999998-0.028124999999999997-0.44999999999999996-0.056249999999999994-0.67499912109375-0.64687412109375-5.793744726562499 1.12499912109375 6.8062438476562495 0.140625 1.09687412109375C879.36840546875 183.21863662109376 879.3402804687498 183.0780116210937 879.31215546875 182.93738662109376c0.30937499999999996 2.9249973632812503 0.44999999999999996 5.8499947265625005 0.5062491210937501 8.77499208984375 0.028124999999999997 0.7312491210937501 0 1.4906232421874999 0 2.2218732421875003l0 15.074985937500001 0 76.24680380859375 0 215.2685478515625 0 79.45305029296874c0 14.849985937499998 12.31873857421875 27.25309951171875 27.02809951171875 27.25309951171875 14.737485937499995 0 27.02809951171875-12.40311357421875 27.02809951171875-27.25309951171875l0-131.343626953125L933.8746044921875 240.11545800781244 933.8746044921875 193.82175107421875C933.8746044921875 169.94364892578125 927.4339856445313 146.26242089843754 915.3402470703124 125.73119023437499" p-id="2606" fill="#ffffff"></path></svg>