<?xml version="1.0" standalone="no"?><!DOCTYPE svg PUBLIC "-//W3C//DTD SVG 1.1//EN" "http://www.w3.org/Graphics/SVG/1.1/DTD/svg11.dtd"><svg t="1542015135551" class="icon" style="" viewBox="0 0 1024 1024" version="1.1" xmlns="http://www.w3.org/2000/svg" p-id="1068" xmlns:xlink="http://www.w3.org/1999/xlink" width="32" height="32"><defs><style type="text/css"></style></defs><path d="M690.3 230.2c-56.9 0-103.1 46.1-103.1 103.1 0 15.8 3.9 30.7 10.3 44.1l-220.1 220c-13.4-6.4-28.2-10.3-44.1-10.3-56.9 0-103.1 46.1-103.1 103.1 0 56.9 46.1 103.1 103.1 103.1 56.9 0 103.1-46.1 103.1-103.1 0-15.8-3.9-30.7-10.3-44.1L646.2 426c13.4 6.4 28.2 10.3 44.1 10.3 56.9 0 103.1-46.1 103.1-103.1s-46.2-103-103.1-103z m-357 494.2c-18.8 0-34.2-15.3-34.2-34.2 0-18.8 15.3-34.2 34.2-34.2 18.8 0 34.2 15.3 34.2 34.2 0 18.9-15.3 34.2-34.2 34.2z m357-357c-18.8 0-34.2-15.3-34.2-34.2s15.3-34.2 34.2-34.2c18.8 0 34.2 15.3 34.2 34.2s-15.3 34.2-34.2 34.2z" fill="#BFCBD9" p-id="1069"></path><path d="M64 63.9v895.6h895.6V63.9H64z m68.9 68.9h356.2l-98.9 98.9c-13.4-6.4-28.2-10.3-44.1-10.3-56.9 0-103.1 46.1-103.1 103.1s46.1 103.1 103.1 103.1c56.9 0 103.1-46.1 103.1-103.1 0-15.8-3.9-30.7-10.3-44.1l147.7-147.7h304.2V842l-107-107c6.4-13.4 10.3-28.2 10.3-44.1 0-56.9-46.1-103.1-103.1-103.1-56.9 0-103.1 46.1-103.1 103.1C587.9 747.8 634 794 691 794c15.8 0 30.7-3.9 44.1-10.3l107 107H132.9V132.8z m247.4 191.8c0 18.8-15.3 34.2-34.2 34.2-18.8 0-34.2-15.3-34.2-34.2 0-18.8 15.3-34.2 34.2-34.2 18.8 0 34.2 15.3 34.2 34.2z m344.8 366.3c0 18.8-15.3 34.2-34.2 34.2-18.8 0-34.2-15.3-34.2-34.2 0-18.8 15.3-34.2 34.2-34.2 18.9 0 34.2 15.3 34.2 34.2z" fill="#BFCBD9" p-id="1070"></path></svg>