<?xml version="1.0" standalone="no"?><!DOCTYPE svg PUBLIC "-//W3C//DTD SVG 1.1//EN" "http://www.w3.org/Graphics/SVG/1.1/DTD/svg11.dtd"><svg t="1553565252102" class="icon" style="" viewBox="0 0 1026 1024" version="1.1" xmlns="http://www.w3.org/2000/svg" p-id="2600" xmlns:xlink="http://www.w3.org/1999/xlink" width="200.390625" height="200"><defs><style type="text/css"></style></defs><path d="M513.66604 0C230.903512 0 1.673695 229.224714 1.673695 511.992346 1.673695 794.759977 230.903512 1024 513.66604 1024 796.428569 1024 1025.648181 794.754875 1025.648181 511.992346 1025.648181 229.229817 796.428569 0 513.66604 0zM810.012029 850.798128c-28.651814-151.372404-172.987557-266.229692-332.580455-266.229692l0 145.080742c0.847053 7.011147-1.57164 11.848533-7.062175 17.170677-10.567748 10.639186-27.034249 6.28656-36.004844-1.449175L194.15367 482.049542c-5.102727-5.077214-7.276489-11.848533-6.939709-18.374921-0.33678-6.771319 1.836982-13.297707 6.939709-18.374921l241.537595-265.020346c9.577819-9.42984 25.100315-9.42984 34.673032 0 5.510945 5.561973 7.470393 12.818051 6.648854 20.069026l0 142.667152c200.526976 0 363.120278 162.491247 363.120278 362.951888C840.138531 757.464144 829.305441 806.307449 810.012029 850.798128z" p-id="2601" fill="#ffffff"></path></svg>