<?xml version="1.0" standalone="no"?><!DOCTYPE svg PUBLIC "-//W3C//DTD SVG 1.1//EN" "http://www.w3.org/Graphics/SVG/1.1/DTD/svg11.dtd"><svg t="1528859379997" class="icon" style="" viewBox="0 0 1024 1024" version="1.1" xmlns="http://www.w3.org/2000/svg" p-id="3118" xmlns:xlink="http://www.w3.org/1999/xlink" width="200" height="200"><defs><style type="text/css"></style></defs><path d="M512.539794 481.359143c-131.814118 0-238.640122 106.860796-238.640122 238.692311 0 131.796722 106.826004 238.658542 238.640122 238.658542 131.779326 0 238.675938-106.86182 238.675938-238.658542C751.215732 588.219939 644.320143 481.359143 512.539794 481.359143zM564.191174 720.383004l0 130.365116L459.91218 850.748121 459.91218 720.383004 355.634208 720.383004l156.417469-156.434865 156.417469 156.434865L564.191174 720.383004z" p-id="3119"></path><path d="M958.726879 741.427296 958.726879 113.591081c0 0-7.259334-45.87584-48.301076-48.301076L596.508207 65.290005c-48.301076 2.425236-72.451102 48.301076-72.451102 48.301076l-24.15105 0c0 0-24.149003-45.87584-72.450079-48.301076L113.573173 65.290005c-41.041742 4.834098-48.301076 48.301076-48.301076 48.301076l0 627.836215c0 0-2.442632 72.432683 48.301076 72.432683L236.837568 813.859979c-7.818059-22.981411-12.842493-47.270607-14.657838-72.432683l-84.45653 0L137.7232 137.741108l289.732777 0c48.301076 0 48.301076 48.28368 48.301076 48.28368l0 245.131977c12.075013-1.517563 24.358781-2.303462 36.782741-2.303462 12.076036 0 23.976064 0.750083 35.666314 2.181689l0-245.010203c0 0 0-48.28368 48.301076-48.28368l289.76757 0 0 603.687212-83.33908 0c-1.814322 25.162076-6.840802 49.451272-14.656815 72.432683l122.145921 0C961.133695 813.859979 958.726879 741.427296 958.726879 741.427296z" p-id="3120"></path></svg>