<?xml version="1.0" standalone="no"?><!DOCTYPE svg PUBLIC "-//W3C//DTD SVG 1.1//EN" "http://www.w3.org/Graphics/SVG/1.1/DTD/svg11.dtd"><svg t="1528708103724" class="icon" style="" viewBox="0 0 1024 1024" version="1.1" xmlns="http://www.w3.org/2000/svg" p-id="1871" xmlns:xlink="http://www.w3.org/1999/xlink" width="200" height="200"><defs><style type="text/css"></style></defs><path d="M512 512h-199.111111v-170.666667c0-110.933333 88.177778-199.111111 199.111111-199.111111s199.111111 88.177778 199.111111 199.111111v56.888889h113.777778v-56.888889c0-173.511111-139.377778-312.888889-312.888889-312.888889S199.111111 167.822222 199.111111 341.333333v170.666667H85.333333v455.111111h853.333334V512H512z m28.444444 219.022222V824.888889h-56.888888v-93.866667c-17.066667-8.533333-28.444444-28.444444-28.444445-48.355555 0-31.288889 25.6-56.888889 56.888889-56.888889s56.888889 25.6 56.888889 56.888889c0 19.911111-11.377778 39.822222-28.444445 48.355555z" fill="" p-id="1872"></path></svg>