<?xml version="1.0" standalone="no"?><!DOCTYPE svg PUBLIC "-//W3C//DTD SVG 1.1//EN" "http://www.w3.org/Graphics/SVG/1.1/DTD/svg11.dtd"><svg t="1542015097226" class="icon" style="" viewBox="0 0 1024 1024" version="1.1" xmlns="http://www.w3.org/2000/svg" p-id="809" xmlns:xlink="http://www.w3.org/1999/xlink" width="32" height="32"><defs><style type="text/css"></style></defs><path d="" fill="#BFCBD9" p-id="810"></path><path d="" fill="#BFCBD9" p-id="811"></path><path d="" fill="#BFCBD9" p-id="812"></path><path d="M869.609 805.735h-594.332v-697.675h594.332v697.675zM810.331 163.424h-474.11v586.946h474.11v-586.946z" fill="#BFCBD9" p-id="813"></path><path d="M662.172 805.735l0.001 43.385h-451.291l-0.001-577.321h65.376v-59.264h-126.32l0.001 695.847h571.51l-0.001-102.647z" fill="#BFCBD9" p-id="814"></path><path d="M390.262 268.177h231.153v70.266h-231.153v-70.266z" fill="#BFCBD9" p-id="815"></path><path d="M386.208 420.353h231.153v70.266h-231.153v-70.266z" fill="#BFCBD9" p-id="816"></path><path d="M390.262 572.518h231.153v70.266h-231.153v-70.266z" fill="#BFCBD9" p-id="817"></path><path d="M680.172 268.177h82.559v70.266h-82.559v-70.266z" fill="#BFCBD9" p-id="818"></path><path d="M676.118 420.348h82.559v70.266h-82.559v-70.266z" fill="#BFCBD9" p-id="819"></path><path d="M680.172 572.518h82.559v70.266h-82.559v-70.266z" fill="#BFCBD9" p-id="820"></path></svg>